<svg width="10" height="10" viewBox="0 0 10 10" fill="none" xmlns="http://www.w3.org/2000/svg">
<path d="M9.06783 0.485249L4.03189 2.49963C3.68603 2.63794 3.37187 2.84508 3.10847 3.10847C2.84508 3.37187 2.63794 3.68603 2.49962 4.0319L0.485249 9.06784C0.460244 9.13031 0.454123 9.19874 0.467644 9.26466C0.481166 9.33057 0.513735 9.39107 0.561315 9.43865C0.608894 9.48623 0.669391 9.5188 0.735306 9.53232C0.801221 9.54584 0.869655 9.53972 0.932124 9.51472L5.96806 7.50034C6.31393 7.36202 6.62809 7.15489 6.89148 6.89149C7.15487 6.6281 7.36201 6.31394 7.50033 5.96807L9.5147 0.932125C9.53971 0.869656 9.54583 0.801222 9.53231 0.735307C9.51879 0.669392 9.48622 0.608894 9.43864 0.561315C9.39106 0.513735 9.33056 0.481166 9.26464 0.467645C9.19873 0.454123 9.1303 0.460244 9.06783 0.485249ZM4.99998 6.03123C4.79601 6.03123 4.59663 5.97075 4.42704 5.85744C4.25746 5.74412 4.12528 5.58306 4.04722 5.39463C3.96917 5.20619 3.94875 4.99884 3.98854 4.7988C4.02833 4.59875 4.12655 4.415 4.27077 4.27078C4.41499 4.12655 4.59875 4.02834 4.79879 3.98855C4.99883 3.94876 5.20618 3.96918 5.39462 4.04723C5.58305 4.12528 5.74411 4.25746 5.85743 4.42705C5.97074 4.59664 6.03123 4.79602 6.03123 4.99998C6.03123 5.27349 5.92258 5.53579 5.72918 5.72919C5.53578 5.92258 5.27348 6.03123 4.99998 6.03123Z" fill="black"/>
</svg>
